<svg xmlns="http://www.w3.org/2000/svg" version="1.1" xmlns:xlink="http://www.w3.org/1999/xlink" xmlns:svgjs="http://svgjs.dev/svgjs" width="1000" height="623" viewBox="0 0 1000 623"><g transform="matrix(1,0,0,1,-0.6060606060606233,0.2522267206477409)"><svg viewBox="0 0 396 247" data-background-color="#ffffff" preserveAspectRatio="xMidYMid meet" height="623" width="1000" xmlns="http://www.w3.org/2000/svg" xmlns:xlink="http://www.w3.org/1999/xlink"><g id="tight-bounds" transform="matrix(1,0,0,1,0.2400000000000091,-0.09999999999999432)"><svg viewBox="0 0 395.52 247.2" height="247.2" width="395.52"><g><svg></svg></g><g><svg viewBox="0 0 395.52 247.2" height="247.2" width="395.52"><g transform="matrix(1,0,0,1,75.54432,73.71053307236923)"><svg viewBox="0 0 244.43135999999998 99.77893385526151" height="99.77893385526151" width="244.43135999999998"><g><svg viewBox="0 0 244.43135999999998 99.77893385526151" height="99.77893385526151" width="244.43135999999998"><g><svg viewBox="0 0 424.17535369346217 173.15194154797535" height="99.77893385526151" width="244.43135999999998"><g><svg viewBox="0 0 244.43135999999998 173.15194154797535" height="173.15194154797535" width="244.43135999999998"><g id="textblocktransform"><svg viewBox="0 0 244.43135999999998 173.15194154797535" height="173.15194154797535" width="244.43135999999998" id="textblock"><g><svg viewBox="0 0 244.43135999999998 121.50923098265893" height="121.50923098265893" width="244.43135999999998"><g transform="matrix(1,0,0,1,0,0)"><svg width="244.43135999999998" viewBox="1.5 -38.25 77.84 38.7" height="121.50923098265893" data-palette-color="#3e54ac"><path d="M2.25-26.8L2.25-26.8Q2.25-32.15 6.9-35.2 11.55-38.25 17.6-38.25L17.6-38.25Q25.35-38.25 31.2-33.8L31.2-33.8Q34.1-31.55 35.7-27.83 37.3-24.1 37.3-19.6L37.3-19.6Q37.3-10.75 32.25-5.2L32.25-5.2Q27 0.45 19.1 0.45L19.1 0.45Q17.35 0.45 15.4 0 13.45-0.45 12.3-1.2L12.3-1.2Q10.45 0.2 7.58 0.2 4.7 0.2 3.1-1.4 1.5-3 1.5-5.5L1.5-5.5Q1.5-11.4 10.45-15.55L10.45-15.55Q10.7-17.65 11.18-21.23 11.65-24.8 11.93-27 12.2-29.2 12.3-29.9L12.3-29.9Q14.35-31.2 17.05-31.2L17.05-31.2Q18.3-31.2 19.45-30.95L19.45-30.95 16.3-9.6Q15.85-6.75 15.05-4.85L15.05-4.85Q16.6-4.45 17.55-4.45L17.55-4.45Q23.3-4.45 26.45-8.8L26.45-8.8Q29.7-13.35 29.7-19.8L29.7-19.8Q29.7-28.05 23.75-31.65L23.75-31.65Q20.45-33.65 16.5-33.65L16.5-33.65Q11.45-33.65 8.5-30.9L8.5-30.9Q6.8-29.35 6.8-27.15L6.8-27.15Q6.8-26 7.5-24.98 8.2-23.95 9.95-23.8L9.95-23.8 9.45-20.55Q5.8-20.75 4.03-22.58 2.25-24.4 2.25-26.8ZM5.2-6.15L5.2-6.15Q5.2-4.35 6.9-4.35L6.9-4.35Q7.6-4.35 8.38-5.28 9.15-6.2 9.45-8.2L9.45-8.2 9.9-11.3Q5.2-8.65 5.2-6.15ZM42.65-36.83Q43.8-38 45.45-38 47.1-38 48.27-36.83 49.45-35.65 49.45-34 49.45-32.35 48.27-31.2 47.1-30.05 45.45-30.05 43.8-30.05 42.65-31.2 41.5-32.35 41.5-34 41.5-35.65 42.65-36.83ZM40.6-22.15Q41.1-23.05 42.5-23.53 43.9-24 45.27-24 46.65-24 47.7-23.65L47.7-23.65Q45.75-8.6 45.75-8.45L45.75-8.45Q45.5-7.45 45.5-6.78 45.5-6.1 45.6-5.6L45.6-5.6Q45.8-4.3 47.42-4.3 49.05-4.3 50.42-6.43 51.8-8.55 52.5-11.25L52.5-11.25Q52.85-11.05 53.6-10.05 54.35-9.05 54.5-8.55L54.5-8.55Q53.5-4.55 51.1-2.1L51.1-2.1Q48.7 0.35 45.35 0.35 42 0.35 40.37-1.3 38.75-2.95 38.75-5.55L38.75-5.55Q38.75-6.1 38.8-6.7L38.8-6.7 40.6-22.15ZM72.7-23.55L72.7-23.55Q70.65-7.35 70.65-6.3L70.65-6.3Q70.65-4.3 72.09-4.3L72.09-4.3Q73.4-4.3 74.92-6.08 76.45-7.85 77.34-11.4L77.34-11.4Q79-9.6 79.34-8.6L79.34-8.6Q78.2-3.75 75.7-1.75 73.2 0.25 70.55 0.25L70.55 0.25Q66.2 0.25 64.7-3.1L64.7-3.1Q62.1 0.25 57.75 0.25L57.75 0.25Q54.15 0.25 52.2-1.55 50.25-3.35 50.25-6.25L50.25-6.25Q50.25-6.95 50.5-8.7L50.5-8.7Q51.65-18 52.25-23.5L52.25-23.5Q53.8-24.05 55.1-24.05 56.4-24.05 57.05-23.95 57.7-23.85 58.3-23.2 58.9-22.55 58.9-21.35L58.9-21.35 57.25-8.6Q57.15-8 57.15-7.5L57.15-7.5Q57.15-4.55 59.85-4.55L59.85-4.55Q62.35-4.55 64-7L64-7Q64-7.55 64.09-8.75L64.09-8.75 65.75-22.05Q66.09-22.9 67.25-23.48 68.4-24.05 70.12-24.05 71.84-24.05 72.7-23.55Z" opacity="1" transform="matrix(1,0,0,1,0,0)" fill="#3e54ac" class="undefined-text-0" data-fill-palette-color="primary" id="text-0"></path></svg></g></svg></g><g transform="matrix(1,0,0,1,0,150.19464419612112)"><svg viewBox="0 0 244.43135999999998 22.957297351854212" height="22.957297351854212" width="244.43135999999998"><g transform="matrix(1,0,0,1,0,0)"><svg width="244.43135999999998" viewBox="3.7 -36.25 392.32 36.85" height="22.957297351854212" data-palette-color="#3e54ac"><path d="M3.7 0L3.7-34.4 31.5-34.4 31.5-26.15 14.75-26.15 14.75-20.25 29.15-20.25 29.15-12.35 14.75-12.35 14.75 0 3.7 0ZM48.3-27Q55.25-27 59.22-23.48 63.2-19.95 63.2-13.2L63.2-13.2Q63.2-6.45 59.22-2.93 55.25 0.6 48.3 0.6L48.3 0.6Q41.35 0.6 37.4-2.9 33.45-6.4 33.45-13.2L33.45-13.2Q33.45-20 37.4-23.5 41.35-27 48.3-27L48.3-27ZM48.3-20.25Q43.4-20.25 43.4-14.6L43.4-14.6 43.4-11.75Q43.4-6.15 48.3-6.15L48.3-6.15Q53.25-6.15 53.25-11.75L53.25-11.75 53.25-14.6Q53.25-20.25 48.3-20.25L48.3-20.25ZM81.65-27Q88.59-27 92.57-23.48 96.55-19.95 96.55-13.2L96.55-13.2Q96.55-6.45 92.57-2.93 88.59 0.6 81.65 0.6L81.65 0.6Q74.7 0.6 70.75-2.9 66.8-6.4 66.8-13.2L66.8-13.2Q66.8-20 70.75-23.5 74.7-27 81.65-27L81.65-27ZM81.65-20.25Q76.75-20.25 76.75-14.6L76.75-14.6 76.75-11.75Q76.75-6.15 81.65-6.15L81.65-6.15Q86.59-6.15 86.59-11.75L86.59-11.75 86.59-14.6Q86.59-20.25 81.65-20.25L81.65-20.25ZM128.64 0L120.54 0 119.69-3.75Q116.79 0.6 111.29 0.6L111.29 0.6Q105.94 0.6 103.04-2.9 100.14-6.4 100.14-13.25L100.14-13.25Q100.14-20.05 103.04-23.53 105.94-27 111.29-27L111.29-27Q115.84-27 118.69-23.95L118.69-23.95 118.69-36.25 128.64-36.25 128.64 0ZM114.39-19.65Q110.09-19.65 110.09-14.5L110.09-14.5 110.09-11.85Q110.09-6.75 114.39-6.75L114.39-6.75Q116.59-6.75 117.69-8.3 118.79-9.85 118.79-12.35L118.79-12.35 118.79-14Q118.79-16.5 117.69-18.07 116.59-19.65 114.39-19.65L114.39-19.65ZM144.99-29.5L135.04-29.5 135.04-36.25 144.99-36.25 144.99-29.5ZM144.99 0L135.04 0 135.04-26.4 144.99-26.4 144.99 0ZM164.99-27Q172.24-27 176.06-23.6 179.89-20.2 179.89-13.2L179.89-13.2 179.89-11.5 160.09-11.5Q160.09-8.65 161.36-7.2 162.64-5.75 165.39-5.75L165.39-5.75Q167.89-5.75 169.06-6.8 170.24-7.85 170.24-9.6L170.24-9.6 179.89-9.6Q179.89-4.8 176.24-2.1 172.59 0.6 165.59 0.6L165.59 0.6Q158.24 0.6 154.19-2.83 150.14-6.25 150.14-13.2L150.14-13.2Q150.14-20 154.09-23.5 158.04-27 164.99-27L164.99-27ZM165.39-20.65Q160.69-20.65 160.14-16.2L160.14-16.2 169.84-16.2Q169.84-18.25 168.66-19.45 167.49-20.65 165.39-20.65L165.39-20.65ZM197.24-27Q202.53-27 206.21-24.93 209.88-22.85 209.88-18.5L209.88-18.5 200.63-18.5Q200.63-19.95 199.34-20.55L199.34-20.55Q198.44-21.05 197.09-21.05L197.09-21.05Q193.49-21.05 193.49-19.35L193.49-19.35Q193.49-18.4 194.74-18 195.99-17.6 198.84-17.15L198.84-17.15Q202.34-16.65 204.69-15.98 207.03-15.3 208.78-13.58 210.53-11.85 210.53-8.75L210.53-8.75Q210.53-3.7 206.76-1.55 202.99 0.6 196.88 0.6L196.88 0.6Q193.38 0.6 190.28-0.38 187.19-1.35 185.24-3.4 183.28-5.45 183.28-8.6L183.28-8.6 192.53-8.6 192.53-8.4Q192.59-6.7 193.96-6.03 195.34-5.35 196.88-5.35L196.88-5.35Q201.03-5.35 201.03-7.3L201.03-7.3Q201.03-8.3 199.74-8.75 198.44-9.2 195.49-9.7L195.49-9.7Q191.94-10.3 189.66-11 187.38-11.7 185.69-13.38 183.99-15.05 183.99-18.05L183.99-18.05Q183.99-22.9 187.66-24.95 191.34-27 197.24-27L197.24-27ZM266.83 0L255.78 0 255.78-13.05 243.63-13.05 243.63 0 232.58 0 232.58-34.4 243.63-34.4 243.63-21.85 255.78-21.85 255.78-34.4 266.83-34.4 266.83 0ZM286.58-27Q292.63-27 296.43-24.98 300.23-22.95 300.23-18.4L300.23-18.4 300.23-8.1Q300.23-7.25 300.63-6.7 301.03-6.15 301.83-6.15L301.83-6.15 303.63-6.15 303.63-0.4Q303.48-0.3 302.85-0.08 302.23 0.15 301.08 0.38 299.93 0.6 298.43 0.6L298.43 0.6Q295.53 0.6 293.65-0.28 291.78-1.15 291.08-2.7L291.08-2.7Q289.18-1.2 286.83-0.3 284.48 0.6 281.33 0.6L281.33 0.6Q272.03 0.6 272.03-6.8L272.03-6.8Q272.03-10.65 274.1-12.68 276.18-14.7 280.08-15.45 283.98-16.2 290.28-16.2L290.28-16.2 290.28-17.5Q290.28-19.05 289.2-19.85 288.13-20.65 286.43-20.65L286.43-20.65Q284.88-20.65 283.75-20.1 282.63-19.55 282.63-18.35L282.63-18.35 282.63-18.15 272.83-18.15Q272.78-18.4 272.78-18.85L272.78-18.85Q272.78-22.6 276.35-24.8 279.93-27 286.58-27L286.58-27ZM290.28-11.5Q286.03-11.5 284-10.58 281.98-9.65 281.98-8.1L281.98-8.1Q281.98-5.6 285.38-5.6L285.38-5.6Q287.33-5.6 288.8-6.65 290.28-7.7 290.28-9.25L290.28-9.25 290.28-11.5ZM323.48 0L313.03 0 303.03-26.4 313.73-26.4 318.58-9.95 318.93-9.95 323.78-26.4 333.58-26.4 323.48 0ZM348.92-27Q356.17-27 360-23.6 363.82-20.2 363.82-13.2L363.82-13.2 363.82-11.5 344.02-11.5Q344.02-8.65 345.3-7.2 346.57-5.75 349.32-5.75L349.32-5.75Q351.82-5.75 353-6.8 354.17-7.85 354.17-9.6L354.17-9.6 363.82-9.6Q363.82-4.8 360.17-2.1 356.52 0.6 349.52 0.6L349.52 0.6Q342.17 0.6 338.12-2.83 334.07-6.25 334.07-13.2L334.07-13.2Q334.07-20 338.02-23.5 341.97-27 348.92-27L348.92-27ZM349.32-20.65Q344.62-20.65 344.07-16.2L344.07-16.2 353.77-16.2Q353.77-18.25 352.6-19.45 351.42-20.65 349.32-20.65L349.32-20.65ZM386.82-27Q391.42-27 393.72-24.45 396.02-21.9 396.02-17.1L396.02-17.1 396.02 0 386.07 0 386.07-15.9Q386.07-17.6 385.2-18.63 384.32-19.65 382.72-19.65L382.72-19.65Q380.87-19.65 379.72-18.45 378.57-17.25 378.57-15.5L378.57-15.5 378.57 0 368.62 0 368.62-26.4 376.77-26.4 377.42-22.4Q378.97-24.5 381.5-25.75 384.02-27 386.82-27L386.82-27Z" opacity="1" transform="matrix(1,0,0,1,0,0)" fill="#3e54ac" class="undefined-text-1" data-fill-palette-color="secondary" id="text-1"></path></svg></g></svg></g></svg></g></svg></g><g transform="matrix(1,0,0,1,273.1167732134622,11.766642539954887)"><svg viewBox="0 0 151.05858048 149.61865646806558" height="149.61865646806558" width="151.05858048"><g><svg xmlns="http://www.w3.org/2000/svg" data-name="Layer 1" viewBox="5 5.460000000000002 89.95749486388911 89.1" x="0" y="0" height="149.61865646806558" width="151.05858048" class="icon-icon-0" data-fill-palette-color="accent" id="icon-0"><path d="M73.62 15c-8.25 8.2-8.53 8.64-8.4 9.17a2.54 2.54 0 0 0 2 1.85 1.17 1.17 0 0 0 0.84-0.35c1-1 11.25-10.5 16-14.46-2.88 3.22-8.44 8.93-11.54 12.11S68.94 27 68.85 27.21a0.89 0.89 0 0 0-0.1 0.68 2 2 0 0 0 0.84 1 1.71 1.71 0 0 0 1.24 0.87 0.9 0.9 0 0 0 0.46-0.13c0.16-0.1 0.66-0.58 3.81-3.64s9-8.73 12.14-11.6c-4 4.76-13.43 15-14.46 16a1.19 1.19 0 0 0-0.3 1.2 2.75 2.75 0 0 0 1.8 1.68l0.14 0c0.52 0 1.48-0.83 9-8.41 2.3-2.31 4.94-5 6.79-6.76-4.16 5.26-14.16 16.65-17 19.19-2.37 2.1-4 2.53-5.76 2.53-0.38 0-0.75 0-1.12 0l-0.38 0-0.92 0c-1.66-0.1-2.65-0.19-4 0.77-0.36 0.25-3.33 3.33-8 8.2-0.35-0.32-1.55-1.47-3.34-3.19 4.92-4.7 8-7.7 8.28-8.06 0.92-1.29 0.86-2.37 0.76-4 0-0.29 0-0.59 0-0.92l0-0.39c-0.1-2.07-0.19-3.85 2.5-6.88 2.55-2.88 14-12.94 19.21-17.07-1.79 1.87-4.45 4.52-6.76 6.82M8.32 90.5L8 90.17c-1-1-1.93-1.92-1.93-2.73a1.68 1.68 0 0 1 0.6-1.16c0.55-0.55 6-5.69 12.89-12.2 7.58-7.16 14.87-14 21-19.88a13 13 0 0 0 1.88 1.48 2.05 2.05 0 0 0 0.93 0.23 3.48 3.48 0 0 0 2.05-1 2.53 2.53 0 0 1 1.24-0.67c0.08 0 0.33 0 0.7 0.38-6.45 6.79-14.59 15.4-23.11 24.43-6.44 6.81-11.52 12.2-12.06 12.74a1.68 1.68 0 0 1-1.15 0.6c-0.82 0-1.75-0.94-2.74-1.93M85.89 92c-1.18-1.31-10.22-10.36-19-19.11C59.07 65 51 57 48.8 54.65l-0.35-0.37-0.17-0.19-0.18-0.18a2 2 0 0 0-1.4-0.66 3.2 3.2 0 0 0-1.87 0.89c-0.66 0.51-1.25 0.94-1.9 0.62a12.43 12.43 0 0 1-1.58-1.29L41 53.13l-0.38-0.35c-6.3-5.77-23-22.61-28.65-31.12C7.08 14.35 5.21 8.24 6.51 7.13a2 2 0 0 1 1.24-0.57c0.86 0 1.74 0.94 2.71 2.08 1.46 1.7 27.37 26.9 37.75 36.9l0.37 0.36 0.37 0.35c1.78 1.71 3 2.86 3.38 3.22l0 0 0.35 0.32 0.38 0.34 4.46 4.07c10.8 9.86 33.26 30.36 34.94 31.62a3 3 0 0 1 1.45 2.09c0.07 0.93-0.55 2-1.89 3.38-1.57 1.57-2.64 2.24-3.58 2.24A3.73 3.73 0 0 1 85.89 92M20.28 17c-4.93-4.83-8.57-8.43-9-9C10.1 6.64 9 5.54 7.75 5.54a2.91 2.91 0 0 0-1.91 0.82c-2.31 2 1.09 9.62 5.23 15.87 0.68 1 1.55 2.21 2.54 3.48l1.2 1.51a304 304 0 0 0 25 26.3C33.09 59.89 25.6 67 19.63 72.6l-1.29 1.22C11.44 80.34 6.49 85 5.94 85.56A2.64 2.64 0 0 0 5 87.44c0 1.24 1.08 2.32 2.23 3.46l0.32 0.32c1.14 1.15 2.22 2.23 3.46 2.23a2.63 2.63 0 0 0 1.88-0.9c0.55-0.55 5.33-5.61 12-12.62l1.23-1.3c6.57-7 15-15.86 22-23.23 2.26 2.35 10 10.07 18.1 18.19l6.14 6.14L73.61 81c5.87 5.87 10.69 10.73 11.52 11.65 1.18 1.3 2.23 1.91 3.33 1.91S91 93.81 92.76 92c1.56-1.56 2.28-2.93 2.19-4.18A4 4 0 0 0 93.09 85c-0.73-0.54-29.64-26.79-34.86-31.55l-4.44-4.06c4.39-4.61 7.46-7.79 7.83-8.06 1.08-0.77 1.9-0.66 3.34-0.58l0.93 0 0.38 0c0.39 0 0.78 0 1.17 0 1.71 0 3.67-0.34 6.44-2.79 0.11-0.1 5.68-6 10.79-11.79l1.24-1.41c4-4.56 7.38-8.73 7.13-9.45l-0.16-0.38H92.5c-0.62 0-2.17 1.45-9.79 9.11-3.32 3.34-7.42 7.46-8.33 8.07a1.77 1.77 0 0 1-0.92-0.91c0-0.12 0-0.17 0-0.21S90 13.66 90 12.17l0-0.26-0.34-0.31h-0.21c-0.68 0-3 2-15 13.67-1.85 1.8-3.45 3.36-3.53 3.48a1.39 1.39 0 0 1-0.45-0.49l-0.18-0.18c-0.22-0.13-0.46-0.35-0.52-0.33 0.16-0.2 1.73-1.82 3.55-3.69C87.5 9.44 87.29 9.24 86.73 8.68l-0.2-0.16h-0.21C84.82 8.51 67.54 24.82 67.38 25a0.15 0.15 0 0 1-0.12 0.05c-0.3 0-0.82-0.49-1-0.93 0.61-0.91 4.73-5 8.08-8.34 8.45-8.41 9.22-9.33 9.08-9.92l-0.1-0.31-0.27-0.09-0.19 0c-0.7 0-4.51 3.06-8.81 6.74l-1.39 1.2c-5.36 4.65-11 9.87-12.26 11.24-3 3.34-2.85 5.51-2.76 7.61l0 0.38c0 0.34 0 0.65 0 0.94 0.09 1.55 0.14 2.33-0.58 3.33-0.28 0.37-3.52 3.49-8.19 8-6.34-6.11-18.57-18-27.41-26.64Z" fill="#3e54ac" data-fill-palette-color="accent"></path></svg></g></svg></g></svg></g></svg></g></svg></g><g><path d="M245.816 0c68.262 0 123.6 55.338 123.6 123.6 0 68.262-55.338 123.6-123.6 123.6-47.239 0-88.288-26.5-109.092-65.446h3.593c20.515 37.137 60.069 62.288 105.499 62.289 66.519 0 120.443-53.924 120.442-120.443 0-66.519-53.924-120.443-120.442-120.443-45.429 0-84.983 25.151-105.499 62.289h-3.593c20.804-38.945 61.853-65.446 109.092-65.446z" fill="#3e54ac" stroke="transparent" data-fill-palette-color="tertiary"></path></g></svg></g><defs></defs></svg><rect width="395.52" height="247.2" fill="none" stroke="none" visibility="hidden"></rect></g></svg></g></svg>